<svg width="21" height="21" viewBox="0 0 21 21" fill="none" xmlns="http://www.w3.org/2000/svg">
<path d="M20.8256 4.01906C20.7552 3.93481 20.6672 3.86705 20.5677 3.82056C20.4683 3.77407 20.3598 3.74998 20.25 3.75H5.12625L4.66781 1.23187C4.60502 0.886252 4.42292 0.573628 4.15325 0.348508C3.88359 0.123388 3.54347 5.07697e-05 3.19219 0H1.5C1.30109 0 1.11032 0.0790176 0.96967 0.21967C0.829018 0.360322 0.75 0.551088 0.75 0.75C0.75 0.948912 0.829018 1.13968 0.96967 1.28033C1.11032 1.42098 1.30109 1.5 1.5 1.5H3.1875L5.58375 14.6522C5.65434 15.0422 5.82671 15.4067 6.08344 15.7087C5.72911 16.0397 5.47336 16.4623 5.34455 16.9298C5.21575 17.3972 5.21892 17.8912 5.35371 18.3569C5.48851 18.8226 5.74966 19.2419 6.10821 19.5683C6.46676 19.8947 6.9087 20.1154 7.38502 20.2059C7.86134 20.2965 8.35344 20.2533 8.80673 20.0813C9.26003 19.9092 9.65682 19.615 9.9531 19.2312C10.2494 18.8474 10.4336 18.389 10.4853 17.907C10.537 17.4249 10.4541 16.9379 10.2459 16.5H14.5041C14.3363 16.8513 14.2495 17.2357 14.25 17.625C14.25 18.1442 14.404 18.6517 14.6924 19.0834C14.9808 19.5151 15.3908 19.8515 15.8705 20.0502C16.3501 20.2489 16.8779 20.3008 17.3871 20.1996C17.8963 20.0983 18.364 19.8483 18.7312 19.4812C19.0983 19.114 19.3483 18.6463 19.4496 18.1371C19.5508 17.6279 19.4989 17.1001 19.3002 16.6205C19.1015 16.1408 18.7651 15.7308 18.3334 15.4424C17.9017 15.154 17.3942 15 16.875 15H7.79719C7.62155 15 7.45149 14.9383 7.31665 14.8257C7.18182 14.7132 7.09077 14.5569 7.05938 14.3841L6.76219 12.75H17.6372C18.1641 12.7499 18.6743 12.5649 19.0788 12.2272C19.4833 11.8896 19.7564 11.4206 19.8506 10.9022L20.9906 4.63406C21.0099 4.52572 21.0051 4.41447 20.9766 4.30818C20.9481 4.2019 20.8966 4.10319 20.8256 4.01906ZM16.875 16.5C17.0975 16.5 17.315 16.566 17.5 16.6896C17.685 16.8132 17.8292 16.9889 17.9144 17.1945C17.9995 17.4 18.0218 17.6262 17.9784 17.8445C17.935 18.0627 17.8278 18.2632 17.6705 18.4205C17.5132 18.5778 17.3127 18.685 17.0945 18.7284C16.8762 18.7718 16.65 18.7495 16.4445 18.6644C16.2389 18.5792 16.0632 18.435 15.9396 18.25C15.816 18.065 15.75 17.8475 15.75 17.625C15.75 17.3266 15.8685 17.0405 16.0795 16.8295C16.2905 16.6185 16.5766 16.5 16.875 16.5ZM7.875 16.5C8.0975 16.5 8.31501 16.566 8.50002 16.6896C8.68502 16.8132 8.82922 16.9889 8.91436 17.1945C8.99951 17.4 9.02179 17.6262 8.97838 17.8445C8.93498 18.0627 8.82783 18.2632 8.6705 18.4205C8.51316 18.5778 8.31271 18.685 8.09448 18.7284C7.87625 18.7718 7.65005 18.7495 7.44448 18.6644C7.23891 18.5792 7.06321 18.435 6.9396 18.25C6.81598 18.065 6.75 17.8475 6.75 17.625C6.75 17.3266 6.86853 17.0405 7.0795 16.8295C7.29048 16.6185 7.57663 16.5 7.875 16.5Z" fill="white"/>
</svg>
